<mxfile host="drawio-plugin" modified="2024-05-24T10:57:06.602Z" agent="Mozilla/5.0 (X11; Linux x86_64) AppleWebKit/537.36 (KHTML, like Gecko) Chrome/122.0.0.0 Safari/537.36" etag="97njnygsy68aBmBr1Ngq" version="22.1.22" type="embed">
  <diagram name="Developers" id="CnW_uup-KwWFPFQ_-pxT">
    <mxGraphModel dx="1531" dy="1120" grid="1" gridSize="10" guides="1" tooltips="1" connect="1" arrows="1" fold="1" page="1" pageScale="1" pageWidth="1600" pageHeight="1200" math="0" shadow="0">
      <root>
        <mxCell id="zfkhhD0QaaSfa7tD3gnL-0" />
        <mxCell id="zfkhhD0QaaSfa7tD3gnL-1" parent="zfkhhD0QaaSfa7tD3gnL-0" />
        <mxCell id="1D6RY33kMopWQ-SAfMun-10" value="" style="rounded=1;whiteSpace=wrap;html=1;strokeWidth=2;dashed=1;gradientColor=default;fillColor=none;" parent="zfkhhD0QaaSfa7tD3gnL-1" vertex="1">
          <mxGeometry x="400" y="440" width="800" height="160" as="geometry" />
        </mxCell>
        <mxCell id="zfkhhD0QaaSfa7tD3gnL-2" style="edgeStyle=orthogonalEdgeStyle;rounded=0;orthogonalLoop=1;jettySize=auto;html=1;" parent="zfkhhD0QaaSfa7tD3gnL-1" edge="1">
          <mxGeometry relative="1" as="geometry">
            <mxPoint x="600" y="520" as="sourcePoint" />
            <mxPoint x="720" y="520" as="targetPoint" />
          </mxGeometry>
        </mxCell>
        <mxCell id="zfkhhD0QaaSfa7tD3gnL-8" style="edgeStyle=orthogonalEdgeStyle;rounded=0;orthogonalLoop=1;jettySize=auto;html=1;entryX=0;entryY=0.5;entryDx=0;entryDy=0;" parent="zfkhhD0QaaSfa7tD3gnL-1" source="zfkhhD0QaaSfa7tD3gnL-9" edge="1">
          <mxGeometry relative="1" as="geometry">
            <mxPoint x="440" y="520" as="targetPoint" />
          </mxGeometry>
        </mxCell>
        <mxCell id="zfkhhD0QaaSfa7tD3gnL-9" value="Developer" style="strokeWidth=2;html=1;shape=mxgraph.flowchart.terminator;whiteSpace=wrap;" parent="zfkhhD0QaaSfa7tD3gnL-1" vertex="1">
          <mxGeometry x="160" y="480" width="160" height="80" as="geometry" />
        </mxCell>
        <mxCell id="1D6RY33kMopWQ-SAfMun-12" style="edgeStyle=orthogonalEdgeStyle;rounded=0;orthogonalLoop=1;jettySize=auto;html=1;" parent="zfkhhD0QaaSfa7tD3gnL-1" source="zfkhhD0QaaSfa7tD3gnL-14" target="1D6RY33kMopWQ-SAfMun-8" edge="1">
          <mxGeometry relative="1" as="geometry" />
        </mxCell>
        <mxCell id="zfkhhD0QaaSfa7tD3gnL-14" value="Remote repository" style="strokeWidth=1;html=1;shape=mxgraph.flowchart.database;whiteSpace=wrap;" parent="zfkhhD0QaaSfa7tD3gnL-1" vertex="1">
          <mxGeometry x="720" y="480" width="160" height="80" as="geometry" />
        </mxCell>
        <mxCell id="1D6RY33kMopWQ-SAfMun-7" style="edgeStyle=orthogonalEdgeStyle;rounded=0;orthogonalLoop=1;jettySize=auto;html=1;entryX=0.5;entryY=1;entryDx=0;entryDy=0;" parent="zfkhhD0QaaSfa7tD3gnL-1" source="1D6RY33kMopWQ-SAfMun-4" edge="1">
          <mxGeometry relative="1" as="geometry">
            <mxPoint x="520" y="560" as="targetPoint" />
          </mxGeometry>
        </mxCell>
        <mxCell id="1D6RY33kMopWQ-SAfMun-4" value="Developer" style="strokeWidth=2;html=1;shape=mxgraph.flowchart.terminator;whiteSpace=wrap;" parent="zfkhhD0QaaSfa7tD3gnL-1" vertex="1">
          <mxGeometry x="160" y="680" width="160" height="80" as="geometry" />
        </mxCell>
        <mxCell id="1D6RY33kMopWQ-SAfMun-6" style="edgeStyle=orthogonalEdgeStyle;rounded=0;orthogonalLoop=1;jettySize=auto;html=1;" parent="zfkhhD0QaaSfa7tD3gnL-1" source="1D6RY33kMopWQ-SAfMun-5" edge="1">
          <mxGeometry relative="1" as="geometry">
            <mxPoint x="520" y="480" as="targetPoint" />
          </mxGeometry>
        </mxCell>
        <mxCell id="1D6RY33kMopWQ-SAfMun-5" value="Developer" style="strokeWidth=2;html=1;shape=mxgraph.flowchart.terminator;whiteSpace=wrap;" parent="zfkhhD0QaaSfa7tD3gnL-1" vertex="1">
          <mxGeometry x="160" y="280" width="160" height="80" as="geometry" />
        </mxCell>
        <mxCell id="1D6RY33kMopWQ-SAfMun-8" value="CI /&amp;nbsp;&lt;span style=&quot;background-color: initial;&quot;&gt;CD&lt;/span&gt;" style="shape=step;perimeter=stepPerimeter;whiteSpace=wrap;html=1;fixedSize=1;" parent="zfkhhD0QaaSfa7tD3gnL-1" vertex="1">
          <mxGeometry x="1000" y="480" width="160" height="80" as="geometry" />
        </mxCell>
        <mxCell id="1D6RY33kMopWQ-SAfMun-13" style="edgeStyle=orthogonalEdgeStyle;rounded=0;orthogonalLoop=1;jettySize=auto;html=1;entryX=0;entryY=0.5;entryDx=0;entryDy=0;entryPerimeter=0;" parent="zfkhhD0QaaSfa7tD3gnL-1" source="1D6RY33kMopWQ-SAfMun-8" edge="1">
          <mxGeometry relative="1" as="geometry">
            <mxPoint x="1280" y="520" as="targetPoint" />
          </mxGeometry>
        </mxCell>
        <mxCell id="1D6RY33kMopWQ-SAfMun-16" value="" style="rounded=0;whiteSpace=wrap;html=1;" parent="zfkhhD0QaaSfa7tD3gnL-1" vertex="1">
          <mxGeometry x="1240" y="440" width="240" height="160" as="geometry" />
        </mxCell>
        <mxCell id="1D6RY33kMopWQ-SAfMun-14" value="Develop" style="shape=process;whiteSpace=wrap;html=1;backgroundOutline=1;" parent="zfkhhD0QaaSfa7tD3gnL-1" vertex="1">
          <mxGeometry x="440" y="480" width="160" height="80" as="geometry" />
        </mxCell>
        <mxCell id="uJrXJ8iCKrKZ39y3wz_8-0" value="Prod Environment" style="text;html=1;align=center;verticalAlign=middle;resizable=0;points=[];autosize=1;strokeColor=none;fillColor=none;fontSize=18;" parent="zfkhhD0QaaSfa7tD3gnL-1" vertex="1">
          <mxGeometry x="1240" y="400" width="170" height="40" as="geometry" />
        </mxCell>
        <mxCell id="uJrXJ8iCKrKZ39y3wz_8-1" value="Services" style="rounded=0;whiteSpace=wrap;html=1;" parent="zfkhhD0QaaSfa7tD3gnL-1" vertex="1">
          <mxGeometry x="1280" y="480" width="160" height="80" as="geometry" />
        </mxCell>
      </root>
    </mxGraphModel>
  </diagram>
</mxfile>
